<svg width="15" height="11" viewBox="0 0 15 11" fill="none" xmlns="http://www.w3.org/2000/svg">
<g clip-path="url(#clip0_1170_597)">
<path d="M8.31599 1.9811V2.19788L8.53058 2.22858C12.0455 2.7315 14.7486 5.7634 14.7486 9.4318C14.7486 9.883 14.7077 10.3237 14.6296 10.7514H13.1247C13.2235 10.3271 13.2758 9.88501 13.2758 9.4318C13.2758 6.61394 11.2717 4.26704 8.6156 3.74518L8.3174 3.68659V3.99049V9.07001L6.79533 9.83745V3.96928V3.67176L6.50226 3.72301C3.78847 4.1976 1.72558 6.57268 1.72558 9.4318C1.72558 9.88611 1.77793 10.3275 1.87672 10.7514H0.369065C0.290877 10.3226 0.25 9.88171 0.25 9.43039C0.25 5.72508 3.00897 2.66857 6.57565 2.21211L6.79392 2.18418V1.96413V1.17347L8.31599 0.406031V1.9811Z" fill="#2D2D2D" stroke="white" stroke-width="0.5"/>
</g>
<defs>
<clipPath id="clip0_1170_597">
<rect width="15" height="11" fill="white"/>
</clipPath>
</defs>
</svg>
