<svg width="19" height="13" viewBox="0 0 19 13" fill="none" xmlns="http://www.w3.org/2000/svg">
<path fill-rule="evenodd" clip-rule="evenodd" d="M10.8513 2.341C15.4585 2.95591 19 6.66208 19 11.1452C19 11.7819 18.9286 12.4018 18.7929 13H16.2153C16.401 12.4118 16.5009 11.7886 16.5009 11.1452C16.5009 7.95874 14.0715 5.30527 10.8531 4.71542V10.8996L8.29153 12.1044V4.69036C5.00348 5.22674 2.50263 7.91195 2.50263 11.1452C2.50263 11.7902 2.60259 12.4118 2.78824 13H0.207065C0.0714017 12.4001 0 11.7802 0 11.1436C0 6.6153 3.61471 2.87905 8.28974 2.32095V1.20476L10.8513 0V2.341Z" fill="#FF0000"/>
</svg>
