<svg width="28" height="28" viewBox="0 0 28 28" fill="none" xmlns="http://www.w3.org/2000/svg">
<path d="M9.3335 14L9.3335 9.33333C9.3335 6.756 11.4228 4.66667 14.0002 4.66667V4.66667C16.5775 4.66667 18.6668 6.756 18.6668 9.33333L18.6668 14" stroke="#2D2D2D" stroke-linecap="round"/>
<path d="M4.36102 14.1678C4.50609 12.4269 4.57863 11.5565 5.15271 11.0282C5.7268 10.5 6.60027 10.5 8.3472 10.5H19.6528C21.3997 10.5 22.2732 10.5 22.8473 11.0282C23.4214 11.5565 23.4939 12.4269 23.639 14.1678L24.3195 22.3339C24.404 23.3474 24.4462 23.8542 24.1491 24.1771C23.852 24.5 23.3435 24.5 22.3264 24.5H5.6736C4.65655 24.5 4.14802 24.5 3.85092 24.1771C3.55382 23.8542 3.59605 23.3474 3.68051 22.3339L4.36102 14.1678Z" stroke="#2D2D2D"/>
</svg>
