<svg width="7" height="8" viewBox="0 0 7 8" fill="none" xmlns="http://www.w3.org/2000/svg">
<path d="M6.71433 3.19241C6.53639 3.2702 6.32916 3.18897 6.25141 3.01103C5.85759 2.10972 4.96772 1.52734 3.98435 1.52734C2.62092 1.52734 1.5117 2.63657 1.5117 4C1.5117 5.36343 2.62092 6.47266 3.98435 6.47266C4.96205 6.47266 5.84986 5.89495 6.24612 5.00087C6.3248 4.82336 6.53245 4.74318 6.70997 4.82191C6.88748 4.90056 6.96762 5.10824 6.88894 5.28576C6.38009 6.43391 5.23997 7.17578 3.98438 7.17578C2.23324 7.17578 0.808594 5.75113 0.808594 4C0.808594 2.24887 2.23324 0.824219 3.98438 0.824219C5.24721 0.824219 6.39 1.57209 6.89573 2.7295C6.97348 2.90741 6.89227 3.11467 6.71433 3.19241Z" fill="black"/>
</svg>
