<svg width="24" height="24" viewBox="0 0 24 24" fill="none" xmlns="http://www.w3.org/2000/svg">
<g clip-path="url(#clip0_1170_803)">
<path d="M15.6258 6.21755H17.3871V3.00196H14.1863C13.9193 2.99085 10.6645 2.92863 9.82086 6.14571C9.80864 6.17941 9.53904 6.94451 9.53904 8.73174L6.6123 8.74063V12.1132L9.54274 12.1047V21.0005H14.0189V12.1125H16.9816V8.731H14.0189V7.66703C14.0189 7.00562 14.2978 6.21755 15.6258 6.21755ZM16.2409 9.47129V11.3715H13.2783V20.2594H10.2834V11.3618L7.35297 11.3704V9.47907L10.2912 9.47055L10.2834 9.09392C10.2449 7.20078 10.5149 6.40457 10.5271 6.36643C11.2552 3.5956 14.0352 3.73484 14.1545 3.74225L16.6465 3.74299V5.47726H15.6258C13.8953 5.47726 13.2787 6.60825 13.2787 7.66666V9.47129H16.2409Z" fill="#2D2D2D"/>
</g>
<defs>
<clipPath id="clip0_1170_803">
<rect width="18" height="18" fill="white" transform="translate(3 3)"/>
</clipPath>
</defs>
</svg>
