<svg width="15" height="11" viewBox="0 0 15 11" fill="none" xmlns="http://www.w3.org/2000/svg">
<path d="M14.8942 5.95973L13.9025 4.68242C13.8072 4.55939 13.6602 4.48745 13.5043 4.48745H9.84046V0.958045C9.84046 0.679545 9.61474 0.453857 9.33627 0.453857H0.932898C0.654398 0.453857 0.428711 0.679576 0.428711 0.958045C0.428711 1.23651 0.65443 1.46223 0.932898 1.46223H8.83206V4.99164C8.83206 5.27014 9.05777 5.49583 9.33624 5.49583H13.2574L13.9917 6.4417V9.04204H12.5967C12.3182 9.04204 12.0926 9.26776 12.0926 9.54623C12.0926 9.82473 12.3183 10.0504 12.5967 10.0504H14.4959C14.7744 10.0504 15.0001 9.8247 15.0001 9.54623V6.26898C15.0001 6.15705 14.9628 6.04814 14.8942 5.95973Z" fill="#009E36"/>
</svg>
