<svg width="24" height="24" viewBox="0 0 24 24" fill="none" xmlns="http://www.w3.org/2000/svg">
<path d="M23.6279 14.5616L23.6314 14.5604L19.8005 6.20167L20.7296 5.73928L20.3819 5.04317L19.4762 5.49428L19.3537 5.22711C19.2641 5.03189 19.0333 4.94619 18.8381 5.03568C18.7534 5.07452 18.6855 5.14243 18.6467 5.22711L18.5374 5.46589C17.8782 5.15974 17.1603 5.00088 16.4335 5.00039H13.1668V4.22261H13.9446V3.44483H13.2761L13.5557 2.326C13.7704 1.4669 13.248 0.596419 12.3889 0.381704C11.5298 0.167038 10.6593 0.689412 10.4446 1.54852C10.3808 1.80372 10.3808 2.07075 10.4446 2.32595L10.7242 3.44479H10.0557V4.22256H10.8335V5.00034H7.56878C6.84126 5.00092 6.1226 5.16017 5.46294 5.46701L5.35367 5.22823C5.26417 5.03301 5.03332 4.94731 4.8381 5.0368C4.75342 5.07564 4.68551 5.14355 4.64667 5.22823L4.52417 5.4954L3.61844 5.04234L3.27078 5.73923L4.19983 6.20356L0.36889 14.5604C0.345265 14.6112 0.33321 14.6666 0.333501 14.7226C0.335203 16.2253 1.55301 17.4431 3.05572 17.4448H6.94461C8.44733 17.4431 9.66513 16.2253 9.66683 14.7226C9.66586 14.6668 9.65259 14.6118 9.62794 14.5616L5.7865 6.17133C6.3449 5.91214 6.95317 5.77797 7.56878 5.77817H10.8335V20.0061L9.50583 21.3337H8.11128C7.03794 21.335 6.1681 22.2048 6.16683 23.2782C6.16683 23.4929 6.34096 23.667 6.55572 23.667H17.4446C17.6594 23.667 17.8335 23.4929 17.8335 23.2782C17.8322 22.2048 16.9624 21.335 15.8891 21.3337H14.4945L13.1668 20.0061V5.77817H16.4335C17.0491 5.77797 17.6574 5.91214 18.2158 6.17133L14.3689 14.5604C14.3453 14.6112 14.3332 14.6666 14.3335 14.7226C14.3352 16.2253 15.553 17.4431 17.0557 17.4448H20.9446C22.4473 17.4431 23.6651 16.2253 23.6668 14.7226C23.6659 14.6668 23.6526 14.6118 23.6279 14.5616ZM6.94461 16.6671H3.05572C2.13201 16.666 1.33611 16.0163 1.15017 15.1115H8.85017C8.66428 16.0163 7.86832 16.666 6.94461 16.6671ZM8.67205 14.3337H1.32828L4.90061 6.54C4.96585 6.5575 5.03449 6.5575 5.09972 6.54L8.67205 14.3337ZM11.3496 1.42884C11.6524 1.0695 12.1892 1.02376 12.5485 1.32661C12.5854 1.35772 12.6197 1.39194 12.6508 1.42884C12.8081 1.62892 12.8636 1.89064 12.8013 2.13739L12.4742 3.44483H11.5261L11.1991 2.13739C11.1367 1.89064 11.1923 1.62892 11.3496 1.42884ZM11.6113 5.00039V4.22261H12.3891V5.00039H11.6113ZM12.3891 5.77817V19.7782H11.6113V5.77817H12.3891ZM15.8891 22.1115C16.3833 22.1121 16.8238 22.4235 16.9892 22.8893H7.01111C7.17653 22.4235 7.617 22.1121 8.11128 22.1115H15.8891ZM13.3947 21.3337H10.6056L11.3834 20.5559H12.6169L13.3947 21.3337ZM18.8998 6.54117C18.964 6.56377 19.0345 6.56085 19.0966 6.533L22.6721 14.3337H15.3283L18.8998 6.54117ZM20.9446 16.6671H17.0557C16.132 16.666 15.3361 16.0163 15.1502 15.1115H22.8502C22.6643 16.0163 21.8683 16.666 20.9446 16.6671Z" fill="#CDCDCD"/>
</svg>
