<svg width="18" height="17" viewBox="0 0 18 17" fill="none" xmlns="http://www.w3.org/2000/svg">
<path d="M9.5693 1.01672L11.4621 5.33391C11.5333 5.49638 11.6468 5.63677 11.7908 5.74041C11.9347 5.84405 12.1039 5.90715 12.2806 5.92312L16.8916 6.33656C17.4134 6.4125 17.6215 7.05234 17.2432 7.42078L13.7698 10.3387C13.4885 10.575 13.3606 10.9462 13.4379 11.3048L14.4476 16.0312C14.5362 16.5502 13.992 16.9467 13.5251 16.7006L9.5004 14.3438C9.3486 14.2547 9.17578 14.2077 8.99977 14.2077C8.82376 14.2077 8.65094 14.2547 8.49915 14.3438L4.47446 16.6992C4.00899 16.9439 3.46337 16.5487 3.55196 16.0298L4.56165 11.3034C4.63759 10.9448 4.51102 10.5736 4.22977 10.3373L0.754929 7.42219C0.378054 7.05516 0.586179 6.41391 1.10649 6.33797L5.71759 5.92453C5.89425 5.90856 6.0634 5.84546 6.20736 5.74182C6.35132 5.63817 6.46483 5.49779 6.53602 5.33531L8.42884 1.01813C8.66368 0.545625 9.33587 0.545625 9.5693 1.01672Z" fill="#FDD835"/>
</svg>
