<svg width="28" height="28" viewBox="0 0 28 28" fill="none" xmlns="http://www.w3.org/2000/svg">
<path d="M13 5.36923L12.9997 5.36923C10.98 5.38023 9.04626 6.18791 7.61874 7.61673C6.19122 9.04556 5.38531 10.9801 5.37616 12.9998V13C5.37616 14.5095 5.82387 15.9851 6.66266 17.2401C7.50145 18.4952 8.69362 19.4732 10.0884 20.0506C11.4831 20.6279 13.0178 20.7786 14.4982 20.4836C15.9786 20.1886 17.3383 19.4612 18.4052 18.3933C19.4721 17.3254 20.1983 15.9651 20.4919 14.4844C20.7856 13.0037 20.6335 11.4692 20.0548 10.075C19.4762 8.68078 18.4971 7.4895 17.2413 6.65186C15.9855 5.81422 14.5095 5.36785 13 5.36923ZM8.02765 5.55835C9.49947 4.57491 11.2299 4.05 13 4.05C15.3737 4.05 17.6502 4.99294 19.3286 6.67139C21.0071 8.34984 21.95 10.6263 21.95 13C21.95 14.7701 21.4251 16.5005 20.4417 17.9723C19.4582 19.4442 18.0604 20.5913 16.425 21.2687C14.7896 21.9461 12.9901 22.1234 11.2539 21.778C9.51781 21.4327 7.92308 20.5803 6.6714 19.3286C5.41972 18.0769 4.56731 16.4822 4.22198 14.7461C3.87664 13.0099 4.05388 11.2104 4.73128 9.57498C5.40869 7.93958 6.55583 6.54179 8.02765 5.55835Z" fill="#2D2D2D" stroke="white" stroke-width="0.1"/>
<path d="M24.9051 25.7704L24.9051 25.7703L20.0709 20.9273L20.938 20.0705L25.7726 24.9139C25.7726 24.9139 25.7726 24.9139 25.7726 24.9139C25.8292 24.9706 25.8739 25.0377 25.9043 25.1116C25.9348 25.1854 25.9503 25.2645 25.95 25.3443C25.9497 25.4241 25.9336 25.503 25.9027 25.5767C25.8717 25.6503 25.8265 25.7171 25.7696 25.7734C25.7126 25.8296 25.6451 25.8742 25.5708 25.9045C25.4966 25.9348 25.417 25.9503 25.3367 25.95C25.2564 25.9497 25.177 25.9337 25.1029 25.9029C25.0289 25.872 24.9617 25.827 24.9051 25.7704Z" fill="#2D2D2D" stroke="white" stroke-width="0.1"/>
</svg>
