<svg width="20" height="18" viewBox="0 0 20 18" fill="none" xmlns="http://www.w3.org/2000/svg">
<path d="M19.8864 2.68652C19.7845 2.58469 19.6148 2.55074 19.479 2.58469L18.8001 2.82234C19.2074 2.34709 19.479 1.83789 19.6487 1.36264C19.7166 1.19291 19.6827 1.05713 19.5808 0.955264C19.479 0.853439 19.3093 0.819484 19.1734 0.887354C18.2229 1.29473 17.4082 1.6342 16.7293 1.83785C16.7293 1.8718 16.6953 1.83785 16.6614 1.83785C16.1182 1.53234 14.7943 0.8534 13.8438 0.8534C11.4336 0.887354 9.49864 2.92416 9.49864 5.40226V5.53804C5.96819 4.8591 4.03324 3.8407 1.92853 1.63416L1.58914 1.29469L1.38545 1.70207C0.231268 3.90861 1.04598 5.91146 2.3699 7.26933C1.75887 7.16751 1.3515 6.96382 0.978073 6.65831C0.842294 6.55648 0.67256 6.52253 0.502826 6.62435C0.367047 6.69226 0.299138 6.89591 0.333092 7.06564C0.808339 8.66112 1.99648 9.95112 3.28644 10.7319C2.67541 10.7319 2.16621 10.664 1.65701 10.3245C1.52123 10.2566 1.31754 10.2566 1.18176 10.3585C1.04598 10.4603 0.978073 10.63 1.04598 10.7997C1.65701 12.531 2.84515 13.4476 4.74617 13.6852C3.76172 14.2623 2.47176 14.7376 0.468911 14.7715C0.265222 14.7715 0.0954885 14.9073 0.0276184 15.0771C-0.0402908 15.2807 0.0276184 15.4505 0.163398 15.5863C1.38549 16.5707 4.10119 17.1478 7.46192 17.1478C13.4365 17.1478 18.3248 11.8182 18.3248 5.26648V5.16466C19.0717 4.79123 19.6827 4.07834 19.9882 3.09389C20.0221 2.95808 19.9882 2.78834 19.8864 2.68652ZM17.8496 4.62146L17.6459 4.68937V5.26648C17.6459 11.4448 13.0631 16.4689 7.46188 16.4689C4.37271 16.4689 2.30199 15.9597 1.18176 15.4165C3.52408 15.2468 4.88195 14.4999 5.93431 13.6852L6.78298 13.0742H5.76458C3.82963 13.0742 2.6415 12.531 1.96256 11.2411C2.57359 11.4448 3.21857 11.4448 3.93146 11.4108C4.20302 11.3769 4.47461 11.3769 4.74617 11.3769L4.848 10.6979C3.55804 10.3245 2.03043 9.17032 1.28359 7.6088C1.96252 7.91431 2.70933 7.98222 3.38826 7.98222H4.44062L3.59199 7.37116C2.8791 6.86196 0.774424 5.06279 1.79283 2.48283C3.96541 4.62146 6.03617 5.60591 9.77028 6.28484L10.1777 6.35275V5.40226C10.1777 3.29758 11.8071 1.56629 13.8439 1.53234C14.6247 1.49838 15.9147 2.21127 16.288 2.41496C16.4917 2.51678 16.6954 2.55074 16.8991 2.48287C17.4083 2.31313 18.0193 2.07549 18.6982 1.80393C18.3927 2.31313 17.9853 2.78838 17.4422 3.22971C17.3064 3.33154 17.2725 3.53523 17.3404 3.70496C17.4083 3.87469 17.612 3.9426 17.7817 3.87469L19.1056 3.4334C18.868 3.87465 18.4945 4.38386 17.8496 4.62146Z" fill="#2D2D2D"/>
</svg>
