<svg width="36" height="32" viewBox="0 0 36 32" fill="none" xmlns="http://www.w3.org/2000/svg">
<path d="M15.2831 9.56711C15.1166 9.46304 14.9253 9.40544 14.729 9.40028C14.5327 9.39513 14.3386 9.44261 14.1669 9.5378C13.9951 9.63298 13.852 9.77241 13.7523 9.94159C13.6527 10.1108 13.6001 10.3035 13.6001 10.4999V21.8299C13.6001 22.0287 13.6539 22.2238 13.7559 22.3945C13.8579 22.5651 14.0043 22.7049 14.1794 22.799C14.3545 22.8931 14.5519 22.938 14.7505 22.9289C14.9491 22.9198 15.1415 22.857 15.3073 22.7473L24.1073 16.9195C24.2605 16.818 24.3858 16.6796 24.4718 16.5172C24.5578 16.3547 24.6017 16.1733 24.5995 15.9895C24.5973 15.8057 24.5491 15.6254 24.4593 15.465C24.3695 15.3047 24.2409 15.1694 24.0853 15.0715L15.2853 9.56711H15.2831Z" fill="#A4A4A4"/>
<path d="M5.8999 0.600098C4.44121 0.600098 3.04226 1.17956 2.01081 2.21101C0.979365 3.24246 0.399902 4.64141 0.399902 6.1001V25.9001C0.399902 27.3588 0.979365 28.7577 2.01081 29.7892C3.04226 30.8206 4.44121 31.4001 5.8999 31.4001H30.0999C31.5586 31.4001 32.9575 30.8206 33.989 29.7892C35.0204 28.7577 35.5999 27.3588 35.5999 25.9001V6.1001C35.5999 4.64141 35.0204 3.24246 33.989 2.21101C32.9575 1.17956 31.5586 0.600098 30.0999 0.600098H5.8999ZM2.5999 6.1001C2.5999 5.22488 2.94758 4.38551 3.56645 3.76664C4.18532 3.14777 5.02469 2.8001 5.8999 2.8001H30.0999C30.9751 2.8001 31.8145 3.14777 32.4334 3.76664C33.0522 4.38551 33.3999 5.22488 33.3999 6.1001V25.9001C33.3999 26.7753 33.0522 27.6147 32.4334 28.2336C31.8145 28.8524 30.9751 29.2001 30.0999 29.2001H5.8999C5.02469 29.2001 4.18532 28.8524 3.56645 28.2336C2.94758 27.6147 2.5999 26.7753 2.5999 25.9001V6.1001Z" fill="#A4A4A4"/>
</svg>
